<svg width="512" height="512" viewBox="0 0 512 512" fill="none" xmlns="http://www.w3.org/2000/svg">
  <defs>
    <linearGradient id="g1" x1="64" y1="64" x2="448" y2="448" gradientUnits="userSpaceOnUse">
      <stop stop-color="#22D3EE"/>
      <stop offset="0.5" stop-color="#3B82F6"/>
      <stop offset="1" stop-color="#8B5CF6"/>
    </linearGradient>
    <linearGradient id="glow" x1="100" y1="100" x2="412" y2="412" gradientUnits="userSpaceOnUse">
      <stop stop-color="#22D3EE" stop-opacity="0.15"/>
      <stop offset="1" stop-color="#8B5CF6" stop-opacity="0.05"/>
    </linearGradient>
    <filter id="blur" x="-20%" y="-20%" width="140%" height="140%">
      <feGaussianBlur stdDeviation="16"/>
    </filter>
  </defs>
  <!-- Background -->
  <rect width="512" height="512" rx="96" fill="#020617"/>
  <!-- Glow bloom -->
  <ellipse cx="256" cy="256" rx="180" ry="180" fill="url(#glow)" filter="url(#blur)"/>
  <!-- Outer ring -->
  <circle cx="256" cy="256" r="200" stroke="url(#g1)" stroke-opacity="0.20" stroke-width="1.5"/>
  <circle cx="256" cy="256" r="180" stroke="url(#g1)" stroke-opacity="0.12" stroke-width="1"/>
  <!-- Shield body -->
  <path d="M256 68L414 138V260C414 348 352 420 256 446C160 420 98 348 98 260V138L256 68Z"
    stroke="url(#g1)" stroke-width="18" fill="#0B1220" stroke-linejoin="round"/>
  <!-- Inner shield fill highlight -->
  <path d="M256 100L390 158V260C390 334 336 398 256 420C176 398 122 334 122 260V158L256 100Z"
    fill="url(#glow)"/>
  <!-- Checkmark -->
  <path d="M192 256L236 300L328 208"
    stroke="url(#g1)" stroke-width="26" stroke-linecap="round" stroke-linejoin="round"/>
  <!-- Corner accent dots -->
  <circle cx="148" cy="148" r="4" fill="#22D3EE" fill-opacity="0.4"/>
  <circle cx="364" cy="148" r="4" fill="#8B5CF6" fill-opacity="0.4"/>
</svg>

